PathFileType	4	(X/Y/Z)	C:\Users\Basilio\Documents\Thesis Gigler\squatting_fais\c3dfiles\039\SJ_pre2\markers_experimental.trc
DataRate	CameraRate	NumFrames	NumMarkers	Units	OrigDataRate	OrigDataStartFrame	OrigNumFrames
200.000000	200.000000	4	61	mm	200.000000	1082	1732
Frame#	Time	FHD			LBHD			RBHD			C7			T10			CLAV			LSHO			LUUPA			LMUPA			LDUPA			LLEP			LMEP			LRAD			LUL			LRFIN			RSHO			RUPA1			RMUPA			RDUPA			RLEP			RMEP			RRAD			RUL			RUFIN			LASI			RASI			USACR			LSACR			RSACR			LTHI1			LTHI2			LTHI3			LTHI4			LLFC			LMFC			LTIB1			LTIB2			LTIB3			LTIB4			LLMAL			LMMAL			LHEE			LMT1			LMT2			LMT5			RTHI			RTHI2			RTHI3			RTHI4			RLFC			RMFC			RTIB1			RTIB2			RTIB3			RTIB4			RLMAL			RMMAL			RHEE			RMT1			RMT2			RMT5			
		X1	Y1	Z1	X2	Y2	Z2	X3	Y3	Z3	X4	Y4	Z4	X5	Y5	Z5	X6	Y6	Z6	X7	Y7	Z7	X8	Y8	Z8	X9	Y9	Z9	X10	Y10	Z10	X11	Y11	Z11	X12	Y12	Z12	X13	Y13	Z13	X14	Y14	Z14	X15	Y15	Z15	X16	Y16	Z16	X17	Y17	Z17	X18	Y18	Z18	X19	Y19	Z19	X20	Y20	Z20	X21	Y21	Z21	X22	Y22	Z22	X23	Y23	Z23	X24	Y24	Z24	X25	Y25	Z25	X26	Y26	Z26	X27	Y27	Z27	X28	Y28	Z28	X29	Y29	Z29	X30	Y30	Z30	X31	Y31	Z31	X32	Y32	Z32	X33	Y33	Z33	X34	Y34	Z34	X35	Y35	Z35	X36	Y36	Z36	X37	Y37	Z37	X38	Y38	Z38	X39	Y39	Z39	X40	Y40	Z40	X41	Y41	Z41	X42	Y42	Z42	X43	Y43	Z43	X44	Y44	Z44	X45	Y45	Z45	X46	Y46	Z46	X47	Y47	Z47	X48	Y48	Z48	X49	Y49	Z49	X50	Y50	Z50	X51	Y51	Z51	X52	Y52	Z52	X53	Y53	Z53	X54	Y54	Z54	X55	Y55	Z55	X56	Y56	Z56	X57	Y57	Z57	X58	Y58	Z58	X59	Y59	Z59	X60	Y60	Z60	X61	Y61	Z61	

1083	5.41	149.7071533203125	1044.132446289063	-805.5781250000002	-1.889700770378113	1049.481811523438	-936.226501464844	16.73122787475586	1042.080688476563	-795.0551757812502	-63.63228988647462	992.424743652344	-879.9290161132815	-352.0650634765626	905.4182128906252	-895.2768554687502	-47.58982849121094	830.4729003906252	-885.0881347656252	-0.7552291154861452	889.2365722656252	-1062.773193359375	-124.8833541870117	897.720642089844	-1253.016967773438	-145.7958374023438	852.4754028320315	-1253.661743164063	-171.953598022461	876.724304199219	-1301.509643554688	-233.5046691894532	850.9985351562502	-1332.792602539063	-271.4552917480469	929.536315917969	-1311.655639648438	-473.1849975585939	819.120300292969	-1162.375854492188	-466.2037048339845	752.2279052734376	-1197.77734375	-447.2020874023439	798.4309082031252	-1101.922119140625	-22.63822174072266	870.1502685546877	-698.8597412109376	-158.322250366211	930.275085449219	-543.7733154296876	-181.6871643066407	887.8470458984377	-529.8607788085939	-209.4943237304688	927.9512329101565	-494.7078857421876	-270.5118103027344	902.5446777343752	-463.5888671875001	-306.5364074707032	977.7185668945315	-500.9774475097657	-460.702362060547	838.4385986328127	-691.8171386718751	-480.7478332519532	786.0257568359377	-640.2736206054689	-425.7398986816407	791.278503417969	-736.7775878906251	-423.2857971191407	737.0113525390626	-1053.69140625	nan	nan	nan	-512.0634765625001	870.5385742187502	-896.3377075195315	-542.0063476562501	860.942077636719	-926.7009277343752	-540.6741943359376	848.8054199218752	-868.334899902344	-375.9751586914063	603.7663574218751	-1130.594116210938	-291.5979614257813	588.3925170898439	-1140.82666015625	-261.7025146484376	624.0111694335939	-1131.108520507813	-263.0586242675782	534.2096557617189	-1132.326293945313	-174.8328704833985	479.5291442871095	-1123.458740234375	-136.3022003173828	462.2394104003907	-1020.586608886719	-135.3734283447266	340.5748901367188	-1110.298706054688	-214.0447082519532	324.0563049316407	-1148.294677734375	-178.6592254638672	308.5825500488282	-1130.335327148438	-202.3666992187501	232.5097198486329	-1091.1865234375	-323.1492919921876	97.75209045410159	-1118.267822265625	-298.0338134765626	89.00650024414064	-1033.737060546875	-396.0818176269532	42.34551239013673	-1076.532592773438	-162.3060760498047	54.01848220825197	-1094.6962890625	-173.246810913086	55.62269592285158	-1136.475341796875	-224.9296264648438	32.86428451538087	-1181.894165039063	-380.6408386230469	615.7869873046876	-702.3026123046876	-314.2030029296876	621.6022338867189	-692.0202636718751	-297.7557983398438	649.3673095703126	-702.9609985351564	-262.1568298339844	557.9235839843751	-677.6787719726564	-183.5800170898438	466.8627319335939	-684.5988769531251	-143.7448425292969	467.9584045410157	-790.0227661132815	-183.8464660644532	274.7771301269532	-699.7652587890626	-282.0058593750001	232.4212036132813	-691.8161010742189	-239.0793457031251	213.4293823242188	-693.9696655273439	-233.7180786132813	160.9664611816407	-722.6024780273439	-321.2669677734376	90.27886199951173	-702.2786865234376	-287.9237060546876	95.94728088378908	-786.9334106445315	-391.2276916503907	40.66530227661134	-751.7627563476564	-157.2936401367188	50.44674682617189	-730.8056030273439	-167.4395141601563	58.16599273681642	-686.3255004882814	-223.5879974365235	32.2605094909668	-638.1179809570314	
1084	5.415	149.8637237548828	1044.008056640625	-805.5509033203127	-1.781895995140076	1049.292724609375	-936.2546386718752	16.8930835723877	1041.919555664063	-795.206726074219	-63.37181854248048	992.2029418945315	-880.0533447265627	-351.8865051269532	905.2898559570315	-895.3262329101565	-47.34189224243165	830.3001098632815	-885.2459716796877	-0.5956541299819947	888.9700317382815	-1062.736572265625	-124.6167068481446	897.4876708984377	-1253.0302734375	-145.5668487548828	852.353698730469	-1253.701171875	-171.7713928222657	876.5787353515627	-1301.5048828125	-233.1963500976563	850.8631591796877	-1332.88671875	-271.2306518554688	929.2513427734377	-1311.682373046875	-473.0970764160157	818.9941406250002	-1162.4697265625	-466.0584716796876	752.0907592773439	-1197.804565429688	-446.9723205566407	798.289978027344	-1102.0166015625	-22.48882484436036	870.0046386718752	-698.8669433593751	-158.1837463378907	930.0684814453127	-543.8684082031251	-181.523422241211	887.664489746094	-529.8848266601564	-209.3558197021485	927.775817871094	-494.7388916015626	-270.5080566406251	902.4067382812502	-463.6521911621095	-306.3364868164063	977.4993896484377	-501.0006103515626	-460.6920776367189	838.377136230469	-691.8564453125001	-480.640838623047	785.9963989257815	-640.3201293945314	-425.6603393554689	791.2974243164065	-736.7686767578126	-422.9760742187501	736.8554077148439	-1053.63623046875	nan	nan	nan	-511.8753356933595	870.4606933593752	-896.4194946289065	-541.7448120117189	860.871765136719	-926.7242431640627	-540.5060424804689	848.750183105469	-868.4463500976565	-375.7812805175782	603.6997070312501	-1130.579956054688	-291.4754638671876	588.3665161132814	-1140.81396484375	-261.5068664550782	623.9243164062501	-1131.139892578125	-262.9785156250001	534.0989379882814	-1132.296142578125	-174.6766967773438	479.4138183593751	-1123.385131835938	-136.2122344970703	462.1382141113282	-1020.522094726563	-135.1434478759766	340.4215393066407	-1110.189331054688	-214.0321350097657	323.5304260253907	-1148.352783203125	-178.4178771972657	308.6286926269532	-1130.42822265625	-202.2693328857422	232.5055389404297	-1091.189575195313	-323.1718750000001	97.74872589111331	-1118.266235351563	-298.0257263183594	89.00001525878908	-1033.748779296875	-396.1383056640626	42.36538696289063	-1076.543212890625	-162.30419921875	53.97201538085939	-1094.755859375	-173.1470184326172	55.62081527709962	-1136.471069335938	-224.9543914794922	32.85224914550782	-1181.9140625	-380.5810241699219	615.6904296875001	-702.3944091796876	-314.1360473632813	621.6091308593751	-692.0933837890626	-297.6245727539063	649.3171997070314	-703.0016479492189	-262.0494079589844	557.8362426757814	-677.7040405273439	-183.5718994140625	466.7818908691407	-684.6820678710939	-143.7023162841797	467.8070068359376	-790.0045166015627	-183.7718048095703	274.7447814941407	-699.7556762695314	-282.0015258789063	232.3432617187501	-691.8291015625001	-239.0577392578126	213.4392852783204	-693.9895019531251	-233.6844940185547	160.9785461425782	-722.5848388671876	-321.2607727050782	90.26913452148439	-702.3094482421876	-287.8884887695313	95.9074172973633	-786.9790649414065	-391.240447998047	40.65822219848634	-751.7548217773439	-157.2899780273438	50.44653320312501	-730.7839965820314	-167.4374237060547	58.16922760009767	-686.3177490234376	-223.5408020019532	32.19757080078126	-638.1270751953126	
1085	5.42	149.9954071044922	1043.949951171875	-805.5169677734377	-1.636430501937867	1049.1103515625	-936.3213500976565	17.08542823791504	1041.838623046875	-795.3059692382815	-63.16351318359376	992.0794067382815	-880.1339111328127	-351.6718444824219	905.1966552734377	-895.4287719726565	-47.16179656982423	830.1235961914065	-885.3015747070315	-0.3849295973777772	888.8712158203127	-1062.730712890625	-124.4668579101563	897.203552246094	-1253.059448242188	-145.3587036132813	852.1623535156252	-1253.715698242188	-171.1305847167969	876.084899902344	-1301.461303710938	-232.9599304199219	850.6460571289065	-1332.908203125	-270.9407348632813	929.0386352539065	-1311.672607421875	-472.8741149902345	818.9174804687502	-1162.527954101563	-465.8666076660157	751.9962768554689	-1197.842651367188	-446.7815856933595	798.264343261719	-1102.087524414063	-22.38445281982422	869.8464965820315	-698.8911132812501	-158.033447265625	930.0068359375002	-543.8483886718751	-181.3887329101563	887.5452270507815	-529.9380493164064	-209.2537231445313	927.5723266601565	-494.7962646484376	-270.3349609375001	902.210632324219	-463.4805297851564	-306.2190246582032	977.3433837890627	-501.028778076172	-460.5934143066407	838.3350830078127	-691.8831176757814	-480.595916748047	785.883483886719	-640.3466796875001	-425.609344482422	791.1634521484377	-736.6728515625001	-421.5489807128907	737.6622314453126	-1053.464111328125	nan	nan	nan	-511.7291259765626	870.6273193359377	-896.4199218750002	-541.4979858398439	860.8145141601565	-926.8161621093752	-540.3131713867189	848.677429199219	-868.501159667969	-375.5904235839844	603.5916748046876	-1130.569580078125	-291.2885131835938	588.3033447265626	-1140.7626953125	-261.3921203613282	623.8753662109376	-1131.138549804688	-262.7654113769532	534.0275268554689	-1132.242309570313	-174.5594024658203	479.3557739257814	-1123.360961914063	-136.0756530761719	462.0852661132814	-1020.439392089844	-134.9456939697266	340.2332763671876	-1110.11767578125	-213.8062896728516	323.9508361816407	-1148.2099609375	-178.25537109375	308.6496276855469	-1130.417724609375	-202.2193450927735	232.4847869873047	-1091.151611328125	-323.0852050781251	97.67713165283206	-1118.305297851563	-297.9865112304688	88.99550628662111	-1033.71435546875	-396.1692810058595	42.38342285156251	-1076.543823242188	-162.3160247802735	53.99207305908205	-1094.73828125	-173.1424560546875	55.55170059204103	-1136.45849609375	-224.9408264160157	32.83295059204102	-1181.910278320313	-380.5122985839844	615.7304077148439	-702.4634399414064	-314.0754699707032	621.5677490234376	-692.2081909179689	-297.5199279785157	649.2843017578126	-703.0978393554689	-261.9789428710938	557.7365112304689	-677.7178344726564	-183.4910278320313	466.7686157226564	-684.7183837890626	-143.5739898681641	467.7984924316407	-790.024841308594	-183.738021850586	274.6934814453126	-699.8054199218751	-281.9288330078126	232.3266906738282	-691.8354492187501	-239.0005950927735	213.4598846435547	-693.9970092773439	-233.6822814941407	160.9722900390625	-722.5903930664064	-321.2605895996094	90.26439666748048	-702.3273315429689	-287.8571166992188	95.90541076660158	-786.963317871094	-391.203582763672	40.65765380859376	-751.7668457031251	-157.3075103759766	50.42820739746095	-730.7509765625001	-167.4366760253907	58.148983001709	-686.3127441406251	-223.6606750488282	32.37641143798829	-638.1091918945314	
1086	5.425	150.0758972167969	1043.913208007813	-805.5531005859377	-1.61497986316681	1048.966674804688	-936.2608642578127	17.29087638854981	1041.817504882813	-795.3289794921877	-62.96405029296876	991.9963378906252	-880.1924438476565	-351.4335327148438	905.0576171875002	-895.475524902344	-46.97999954223634	830.0025024414065	-885.3445434570315	-0.1778798699378968	888.7641601562502	-1062.705688476563	-124.2142639160157	897.1680297851565	-1253.092163085938	-145.1666107177735	851.9680175781252	-1253.678100585938	-171.2394409179688	876.2647094726565	-1301.466064453125	-232.5854644775391	850.4077148437502	-1332.921020507813	-270.6673889160157	928.9033813476565	-1311.771606445313	-472.7224426269532	818.8021240234377	-1162.607055664063	-465.7263793945314	751.9385986328126	-1197.894897460938	-446.4927062988282	798.1575317382815	-1102.17431640625	-22.22896957397461	869.6851806640627	-698.8561401367189	-157.7896881103516	929.8077392578127	-543.8652954101564	-181.2141876220703	887.3302001953127	-529.9790649414064	-209.1561737060547	927.412780761719	-494.8024291992189	-270.1688842773438	901.9501953125002	-463.4883728027345	-306.0578613281251	977.226989746094	-500.9888305664064	-460.4075927734376	838.2275390625002	-691.9168701171876	-480.5193786621095	785.8523559570315	-640.3787231445314	-425.4701232910157	791.1301269531252	-736.6666259765626	-421.2156066894532	737.4313354492189	-1053.258178710938	nan	nan	nan	-511.4971923828126	870.6190185546877	-896.4633789062502	-541.3079833984376	860.7064208984377	-926.8425292968752	-540.1744995117189	848.6357421875002	-868.5003662109377	-375.3719787597657	603.5910644531251	-1130.51611328125	-291.1638793945313	588.3731079101564	-1140.68701171875	-261.2375183105469	623.8153076171876	-1131.102294921875	-262.6135559082032	533.8898315429689	-1132.112915039063	-174.4107971191407	479.3072509765626	-1123.238525390625	-136.0449371337891	462.0143432617189	-1020.456237792969	-134.810531616211	340.2558288574219	-1110.078247070313	-213.6589813232422	323.8986206054688	-1148.182983398438	-178.1290893554688	308.5447082519532	-1130.356689453125	-202.1124877929688	232.4126739501954	-1091.075439453125	-323.0241394042969	97.74526214599612	-1118.25341796875	-298.0042114257813	89.01800537109376	-1033.699340820313	-396.167938232422	42.37854766845704	-1076.551147460938	-162.2955017089844	53.90929794311525	-1094.758178710938	-173.0921936035157	55.57827758789064	-1136.41357421875	-224.9834899902344	32.86672592163087	-1181.90625	-380.4742431640626	615.7292480468751	-702.4841918945314	-314.0338134765626	621.6295776367189	-692.2041625976564	-297.4305114746094	649.2638549804689	-703.1181030273439	-261.8287658691407	557.6587524414064	-677.7542724609376	-183.405517578125	466.7667541503907	-684.7210693359376	-143.5645141601563	467.7119445800782	-790.0281372070315	-183.6800842285157	274.6798400878907	-699.7819213867189	-281.9530029296876	232.3144989013672	-691.8608398437501	-238.9824371337891	213.3563537597657	-694.0095825195314	-233.6622314453126	160.9098510742188	-722.6218872070314	-321.2925415039063	90.32973480224611	-702.3562622070314	-287.8294677734376	95.90618896484376	-786.9824829101565	-391.191864013672	40.64729309082032	-751.7835693359376	-157.283920288086	50.46937179565431	-730.7638549804689	-167.4257049560547	58.13640213012697	-686.3176879882814	-223.5976104736329	32.27862548828126	-638.1174926757814	
